<?xml version="1.0" encoding="UTF-8"?>
<svg xmlns="http://www.w3.org/2000/svg" version="1.1" viewBox="0 0 340.16 340.16">
  <defs>
    <style>
      .cls-1 {
        stroke: #c64327;
        stroke-width: 16px;
      }

      .cls-1, .cls-2, .cls-3 {
        fill: none;
        stroke-miterlimit: 10;
      }

      .cls-2 {
        stroke: #939598;
      }

      .cls-2, .cls-3 {
        stroke-width: 4px;
      }

      .cls-4 {
        fill: #231f20;
      }

      .cls-5 {
        fill: #fff;
      }

      .cls-3 {
        stroke: #fff;
      }

      .cls-6 {
        display: none;
      }

      .cls-7 {
        fill: #c64227;
      }
    </style>
  </defs>
  <!-- Generator: Adobe Illustrator 28.6.0, SVG Export Plug-In . SVG Version: 1.2.0 Build 709)  -->
  <g>
    <g id="Layer_1" class="cls-6">
      <rect class="cls-4" x="0" width="340.16" height="340.16"/>
    </g>
    <g id="Layer_4">
      <g>
        <g>
          <path class="cls-5" d="M104.1,99.78c7.43,0,12.66-3.88,12.66-11.63v-25.12h-6.22v25.12c0,5.8-6.43,5.66-6.43,5.66,0,0,0,2.94,0,5.97Z"/>
          <path class="cls-5" d="M104.1,99.78c-7.43,0-12.66-3.88-12.66-11.63v-25.12h6.22v25.12c0,5.8,6.43,5.66,6.43,5.66,0,0,0,2.94,0,5.97Z"/>
        </g>
        <g>
          <rect class="cls-5" x="122.47" y="63.04" width="6.85" height="36.26"/>
          <polygon class="cls-5" points="139.87 99.3 129.3 73.09 127.05 72.91 127.05 63.04 130.5 63.04 141.03 90.81 142.25 90.99 142.25 99.3 139.87 99.3"/>
          <rect class="cls-5" x="141.01" y="63.04" width="6.84" height="36.26"/>
        </g>
        <path class="cls-5" d="M154.6,99.27v-36.26h6.53v36.26h-6.53Z"/>
        <rect class="cls-5" x="165.75" y="63.04" width="25.41" height="6.4"/>
        <rect class="cls-5" x="175.09" y="63.04" width="6.74" height="36.26"/>
        <path class="cls-5" d="M186.19,84.62v-4.94h15.37v4.94h-15.37Z"/>
        <g>
          <polygon class="cls-5" points="201.7 75.86 201.7 69.24 206.97 63.01 206.97 71.29 201.7 75.86"/>
          <rect class="cls-5" x="206.97" y="63.01" width="6.5" height="36.26"/>
        </g>
        <g>
          <polygon class="cls-5" points="234.72 81.95 234.72 76.42 235.16 76.42 240.28 62.82 243.32 62.82 244.77 62.82 250.33 62.82 250.33 99.08 243.32 99.08 243.32 73.03 239.65 81.95 234.72 81.95"/>
          <polygon class="cls-5" points="234.72 81.95 234.72 76.42 234.27 76.42 229.15 62.82 226.11 62.82 224.66 62.82 219.1 62.82 219.1 99.08 226.11 99.08 226.11 73.03 229.78 81.95 234.72 81.95"/>
        </g>
      </g>
    </g>
    <g id="Layer_6" class="cls-6">
      <rect class="cls-7" x="86.83" y="241.1" width="13.41" height="13.41" transform="translate(202.62 6.44) rotate(45)"/>
      <rect class="cls-7" x="116.27" y="241.1" width="13.41" height="13.41" transform="translate(211.24 -14.37) rotate(45)"/>
      <rect class="cls-7" x="211.94" y="241.1" width="13.41" height="13.41" transform="translate(239.26 -82.02) rotate(45)"/>
      <rect class="cls-7" x="241.38" y="241.1" width="13.41" height="13.41" transform="translate(247.89 -102.84) rotate(45)"/>
    </g>
    <g id="Layer_3">
      <g>
        <polyline class="cls-2" points="244.32 164.36 180.69 274.57 170.08 274.57"/>
        <polyline class="cls-2" points="95.84 164.36 159.47 274.57 170.08 274.57"/>
      </g>
      <g class="cls-6">
        <polyline class="cls-3" points="170.08 51.66 257.91 51.66 268.52 70.04 180.69 222.17 170.08 222.17"/>
        <polyline class="cls-3" points="170.08 51.66 82.25 51.66 71.64 70.04 159.47 222.17 170.08 222.17"/>
      </g>
      <g>
        <polyline class="cls-1" points="197 264.2 179.37 211.82 187.36 204.31 206.89 216.1"/>
        <polyline class="cls-1" points="143.31 264.2 160.93 211.82 152.94 204.31 133.42 216.1"/>
      </g>
    </g>
    <g id="Layer_5">
      <g>
        <path class="cls-5" d="M170.08,147.14s12.89-.5,28.57,3.12c1.12-2.3,2.31-5.01,3.2-7.44-9.37-3.31-31.77-3.64-31.77-3.64,0,0-22.4.33-31.77,3.64.89,2.43,2.08,5.14,3.2,7.44,15.67-3.62,28.57-3.12,28.57-3.12Z"/>
        <path class="cls-5" d="M69.05,136.64l-4.78,2.54s27.33,27.04,37.72,33.83c12.07,7.88,51.56,25.34,51.56,25.34l4.08-3.55s-39.85-18.33-52.08-26.36c-9.91-6.51-36.49-31.79-36.49-31.79Z"/>
        <path class="cls-5" d="M92.62,150.25c6.22,5.42,18.78,14.53,35.52,23.63,15.14,8.23,27.17,13.16,27.17,13.16,0,0-2.22-3.87-5.11-9.03-12.79-6.04-24-10.95-38.42-20.09-7.02-4.45-23.05-18.53-31.54-26.38l-4.81,1.93s8.15,8.9,17.2,16.78Z"/>
        <path class="cls-5" d="M132.87,162.77c2.61,1.49,7.46,3.89,12.35,6.23-2.49-4.58-4.88-9.11-6.41-12.34-4.01-8.44-17.66-41.5-17.66-41.5l-34.49,13.82c3.79,3.81,8.37,8.12,10.7,10.16,9.91,8.66,26.26,18.34,35.52,23.63Z"/>
        <path class="cls-5" d="M170.08,154.22s-15.61,0-24.9,2.88c.89,2.43,17.62,32.39,18.74,34.69,3.97-.03,6.16-.09,6.16-.09,0,0,2.19.06,6.16.09,1.12-2.3,17.85-32.27,18.74-34.69-9.29-2.88-24.9-2.88-24.9-2.88Z"/>
        <path class="cls-5" d="M271.11,136.64s-26.58,25.28-36.49,31.79c-12.23,8.03-52.08,26.36-52.08,26.36l4.08,3.55s39.49-17.46,51.56-25.34c10.39-6.78,37.72-33.83,37.72-33.83l-4.78-2.54Z"/>
        <path class="cls-5" d="M189.95,178.02c-2.89,5.16-5.11,9.03-5.11,9.03,0,0,12.03-4.92,27.17-13.16,16.74-9.1,29.3-18.21,35.52-23.63,9.05-7.88,17.2-16.78,17.2-16.78l-4.81-1.93c-8.49,7.85-24.52,21.93-31.54,26.38-14.42,9.14-25.63,14.04-38.42,20.09Z"/>
        <path class="cls-5" d="M194.93,168.99c4.89-2.34,9.74-4.73,12.35-6.23,9.26-5.29,25.61-14.97,35.52-23.63,2.33-2.04,6.91-6.35,10.7-10.16l-34.49-13.82s-13.65,33.06-17.66,41.5c-1.54,3.23-3.93,7.76-6.41,12.34Z"/>
      </g>
    </g>
  </g>
</svg>