<?xml version="1.0" encoding="UTF-8"?>
<svg xmlns="http://www.w3.org/2000/svg" version="1.1" xmlns:xlink="http://www.w3.org/1999/xlink" viewBox="0 0 340.16 340.16">
  <defs>
    <style>
      .cls-1 {
        fill: #231f20;
      }

      .cls-2 {
        fill: #fff;
      }

      .cls-3, .cls-4 {
        fill: none;
      }

      .cls-4 {
        stroke: #fff;
        stroke-miterlimit: 10;
        stroke-width: 4px;
      }

      .cls-5 {
        display: none;
      }

      .cls-6 {
        fill: #c64227;
      }

      .cls-7 {
        clip-path: url(#clippath);
      }
    </style>
    <clipPath id="clippath">
      <polygon class="cls-3" points="214.03 164.42 126.03 164.25 71.64 70.04 82.25 51.66 257.91 51.66 268.52 70.04 214.03 164.42"/>
    </clipPath>
  </defs>
  <!-- Generator: Adobe Illustrator 28.6.0, SVG Export Plug-In . SVG Version: 1.2.0 Build 709)  -->
  <g>
    <g id="Layer_1" class="cls-5">
      <rect class="cls-1" x="0" width="340.16" height="340.16"/>
    </g>
    <g id="Layer_5">
      <g class="cls-7">
        <g>
          <g>
            <path class="cls-2" d="M201.84,90.42c-.89,2.43-2.08,5.14-3.2,7.44-15.67-3.62-28.57-3.12-28.57-3.12v-7.96s22.4.33,31.77,3.64Z"/>
            <path class="cls-2" d="M176.24,139.39c-3.97-.03-6.16-.09-6.16-.09v-37.49s15.61,0,24.9,2.88c-.89,2.43-17.62,32.39-18.74,34.69Z"/>
            <path class="cls-2" d="M247.53,97.85c-6.22,5.42-18.78,14.53-35.52,23.63-15.14,8.23-27.17,13.16-27.17,13.16,0,0,11.97-20.86,16.5-30.39,4.01-8.44,17.66-41.5,17.66-41.5l45.72,18.32s-8.15,8.9-17.2,16.78Z"/>
            <path class="cls-2" d="M271.11,84.24l4.78,2.54s-27.33,27.04-37.72,33.83c-12.07,7.88-51.56,25.34-51.56,25.34l-4.08-3.55s39.85-18.33,52.08-26.36c9.91-6.51,36.49-31.79,36.49-31.79Z"/>
          </g>
          <g>
            <path class="cls-2" d="M138.31,90.42c.89,2.43,2.08,5.14,3.2,7.44,15.67-3.62,28.57-3.12,28.57-3.12v-7.96s-22.4.33-31.77,3.64Z"/>
            <path class="cls-2" d="M163.92,139.39c3.97-.03,6.16-.09,6.16-.09v-37.49s-15.61,0-24.9,2.88c.89,2.43,17.62,32.39,18.74,34.69Z"/>
            <path class="cls-2" d="M92.62,97.85c6.22,5.42,18.78,14.53,35.52,23.63,15.14,8.23,27.17,13.16,27.17,13.16,0,0-11.97-20.86-16.5-30.39-4.01-8.44-17.66-41.5-17.66-41.5l-45.72,18.32s8.15,8.9,17.2,16.78Z"/>
            <path class="cls-2" d="M69.05,84.24l-4.78,2.54s27.33,27.04,37.72,33.83c12.07,7.88,51.56,25.34,51.56,25.34l4.08-3.55s-39.85-18.33-52.08-26.36c-9.91-6.51-36.49-31.79-36.49-31.79Z"/>
          </g>
        </g>
      </g>
    </g>
    <g id="Layer_4">
      <g>
        <path class="cls-2" d="M89.03,286.44c9.11,0,15.52-4.76,15.52-14.26v-30.81h-7.63v30.81c0,7.12-7.89,6.94-7.89,6.94,0,0-.01,3.6-.01,7.33Z"/>
        <path class="cls-2" d="M89.03,286.44c-9.11,0-15.52-4.76-15.52-14.26v-30.81h7.63v30.81c0,7.12,7.89,6.94,7.89,6.94,0,0,.01,3.6.01,7.33Z"/>
      </g>
      <g>
        <rect class="cls-2" x="111.57" y="241.37" width="8.4" height="44.47"/>
        <polygon class="cls-2" points="132.92 285.84 119.95 253.7 117.19 253.48 117.19 241.37 121.42 241.37 134.33 275.44 135.83 275.65 135.83 285.84 132.92 285.84"/>
        <rect class="cls-2" x="134.31" y="241.37" width="8.4" height="44.47"/>
      </g>
      <path class="cls-2" d="M150.99,285.81v-44.47h8.01v44.47h-8.01Z"/>
      <rect class="cls-2" x="164.66" y="241.37" width="31.17" height="8.81"/>
      <rect class="cls-2" x="176.11" y="241.37" width="8.27" height="44.47"/>
      <path class="cls-2" d="M189.73,267.35v-5.57h18.85v5.57h-18.85Z"/>
      <g>
        <polygon class="cls-2" points="208.76 257.1 208.76 248.98 215.23 241.34 215.23 251.49 208.76 257.1"/>
        <rect class="cls-2" x="215.23" y="241.34" width="7.97" height="44.47"/>
      </g>
      <g>
        <polygon class="cls-2" points="249.26 264.57 249.26 258.6 249.8 258.6 256.09 241.11 259.81 241.11 261.59 241.11 268.41 241.11 268.41 285.58 259.81 285.58 259.81 253.63 255.31 264.57 249.26 264.57"/>
        <polygon class="cls-2" points="249.26 264.57 249.26 258.6 248.72 258.6 242.43 241.11 238.7 241.11 236.92 241.11 230.1 241.11 230.1 285.58 238.7 285.58 238.7 253.63 243.21 264.57 249.26 264.57"/>
      </g>
    </g>
    <g id="Layer_6">
      <rect class="cls-6" x="86.83" y="196.06" width="13.41" height="13.41" transform="translate(170.77 -6.75) rotate(45)"/>
      <rect class="cls-6" x="116.27" y="196.06" width="13.41" height="13.41" transform="translate(179.39 -27.57) rotate(45)"/>
      <rect class="cls-6" x="211.94" y="196.06" width="13.41" height="13.41" transform="translate(207.41 -95.21) rotate(45)"/>
      <rect class="cls-6" x="241.38" y="196.06" width="13.41" height="13.41" transform="translate(216.04 -116.03) rotate(45)"/>
    </g>
    <g id="Layer_3">
      <polygon class="cls-4" points="180.69 222.17 268.52 70.04 257.91 51.66 82.25 51.66 71.64 70.04 159.47 222.17 180.69 222.17"/>
    </g>
  </g>
</svg>