<?xml version="1.0" encoding="UTF-8"?>
<svg xmlns="http://www.w3.org/2000/svg" version="1.1" viewBox="0 0 170.08 170.08">
  <!-- Generator: Adobe Illustrator 28.6.0, SVG Export Plug-In . SVG Version: 1.2.0 Build 709)  -->
  <g>
    <g id="Layer_1">
      <path d="M155.21,101.88c4.1,2.85,9.36.11,13.26,2.8,1.06.73,1.06,2.33-.01,3.04-3.87,2.57-9.26.34-13.4,2.39-1.72.85-1.69,3.36-.02,4.29,3.71,2.08,8.76,1.77,12.01,4.83,1.28,1.21.53,3.31-1.22,3.49-2.65.27-5-1.4-7.31-1.97-5.85-1.43-10.93-.88-14.51,4.45-12.06,17.94-30.58,24.5-50.5,26.99-18.55,2.32-36.9.54-53.58-9.66-6.36-3.89-11.94-8.36-15.8-14.67-3.15-5.15-6.73-8.46-13.27-6.2-1.35.47-3.01.18-4.5,0-1.61-.19-2.87-1.11-3.03-2.84-.16-1.7.91-2.76,2.33-3.55,2.25-1.24,5.32-.62,7.56-2.86.52-.52.43-1.47-.23-1.81-2.18-1.12-4.53.37-6.57,0C3.3,110.04-.05,109.36,0,105.55c.05-3.69,3.55-3.46,6.2-3.8,1.18-.15,2.38-.21,3.37-.29.62-.66.49-1.07-.23-1.42-3.36-1.66-9.54-1.81-8.81-6.14.88-5.18,6.32-2.51,9.98-2.05,3.47.44,5.07-1.59,5.8-4.47,1.48-5.87,3.32-11.73,4.04-17.71,2.89-23.93,14.65-42.71,33.04-57.59,9.34-7.56,14.38-4.83,17.31,8.01,1.68,7.38,3.92,14.62,6.29,21.81,1.04,3.16,1.65,7.34,5.76,8.05,3.91.68,5.94-2.1,7.94-4.93,8.44-11.94,18.17-22.67,30.1-31.22,9.84-7.06,14.14-5.73,18.14,5.5,4.01,11.25,6.37,23.02,5.27,34.81-1.2,12.87,6.09,23.27,8.04,35.12.63,3.83,4.55,3.07,7.51,3.48,3.76.52,10.25-2.2,10.12,3.92-.1,4.69-6.35,2.77-9.99,3.33-1.46.22-3.03,0-4.68,1.93ZM71.24,100.97c.12-10.37-5.68-17.22-14.57-17.19-10.16.03-17.65,7.15-17.66,16.79,0,9.24,6.52,15.58,16.2,15.75,10.16.18,15.91-5.33,16.03-15.35ZM122.1,99.52c.02-10.57-7.08-15.85-15.87-15.74-8.09.1-14.45,8.07-14.37,17.22.07,8.17,7.27,15.19,14.96,15.32,9.17.16,15.26-6.89,15.28-16.81Z"/>
      <path d="M66.47,100.35c.11,7.16-4.58,11.63-11.34,11.55-6.21-.07-11.44-5.17-11.34-12.14.11-7.52,5.07-11.64,11.34-11.73,6.63-.09,11.23,5.21,11.34,12.31Z"/>
      <path d="M118.16,100.23c.11,7.16-4.58,11.63-11.34,11.55-6.21-.07-11.44-5.17-11.34-12.14.11-7.52,5.07-11.64,11.34-11.73,6.63-.09,11.23,5.21,11.34,12.31Z"/>
    </g>
  </g>
</svg>