<?xml version="1.0" encoding="UTF-8"?>
<svg xmlns="http://www.w3.org/2000/svg" version="1.1" xmlns:xlink="http://www.w3.org/1999/xlink" viewBox="0 0 1046.5 1032.3">
  <defs>
    <style>
      .cls-1 {
        fill: url(#linear-gradient-2);
      }

      .cls-2 {
        fill: url(#linear-gradient-10);
      }

      .cls-3 {
        fill: #fff;
      }

      .cls-4 {
        fill: #51717c;
      }

      .cls-5 {
        fill: url(#linear-gradient-4);
      }

      .cls-6 {
        fill: url(#linear-gradient-3);
      }

      .cls-7 {
        fill: url(#linear-gradient-5);
      }

      .cls-8 {
        fill: url(#linear-gradient-8);
      }

      .cls-9 {
        fill: #bae3e4;
      }

      .cls-10 {
        fill: #a6ccca;
      }

      .cls-11 {
        fill: url(#linear-gradient-7);
      }

      .cls-12 {
        fill: url(#linear-gradient-9);
      }

      .cls-13 {
        fill: url(#linear-gradient-11);
      }

      .cls-14 {
        fill: url(#linear-gradient-6);
      }

      .cls-15 {
        fill: url(#linear-gradient);
      }

      .cls-16 {
        fill: #6f91a0;
      }
    </style>
    <linearGradient id="linear-gradient" x1="5.7" y1="1072.8" x2="259.9" y2="1072.8" gradientTransform="translate(0 1698.8) scale(1 -1)" gradientUnits="userSpaceOnUse">
      <stop offset="0" stop-color="#6f91a0"/>
      <stop offset="1" stop-color="#51717c"/>
    </linearGradient>
    <linearGradient id="linear-gradient-2" x1="153.3" y1="919.5" x2="559.7" y2="919.5" gradientTransform="translate(0 1698.8) scale(1 -1)" gradientUnits="userSpaceOnUse">
      <stop offset="0" stop-color="#6f91a0"/>
      <stop offset="1" stop-color="#51717c"/>
    </linearGradient>
    <linearGradient id="linear-gradient-3" x1="278" y1="915.8" x2="773.6" y2="915.8" gradientTransform="translate(0 1698.8) scale(1 -1)" gradientUnits="userSpaceOnUse">
      <stop offset="0" stop-color="#ffdaa0"/>
      <stop offset="1" stop-color="#f5b958"/>
    </linearGradient>
    <linearGradient id="linear-gradient-4" x1="397.6" y1="1462.3" x2="747.4" y2="1462.3" gradientTransform="translate(0 1698.8) scale(1 -1)" gradientUnits="userSpaceOnUse">
      <stop offset="0" stop-color="#6f91a0"/>
      <stop offset="1" stop-color="#51717c"/>
    </linearGradient>
    <linearGradient id="linear-gradient-5" x1="779.6" y1="1402.8" x2="984.9" y2="1402.8" gradientTransform="translate(0 1698.8) scale(1 -1)" gradientUnits="userSpaceOnUse">
      <stop offset="0" stop-color="#6f91a0"/>
      <stop offset="1" stop-color="#51717c"/>
    </linearGradient>
    <linearGradient id="linear-gradient-6" x1="0" y1="976" x2="542.5" y2="976" gradientTransform="translate(0 1698.8) scale(1 -1)" gradientUnits="userSpaceOnUse">
      <stop offset="0" stop-color="#ffdaa0"/>
      <stop offset="1" stop-color="#f5b958"/>
    </linearGradient>
    <linearGradient id="linear-gradient-7" x1="702.1" y1="1527.4" x2="923.5" y2="1527.4" gradientTransform="translate(0 1698.8) scale(1 -1)" gradientUnits="userSpaceOnUse">
      <stop offset="0" stop-color="#ffdaa0"/>
      <stop offset="1" stop-color="#f5b958"/>
    </linearGradient>
    <linearGradient id="linear-gradient-8" x1="438.2" y1="1166.8" x2="626.9" y2="1166.8" gradientTransform="translate(0 1698.8) scale(1 -1)" gradientUnits="userSpaceOnUse">
      <stop offset="0" stop-color="#ffdaa0"/>
      <stop offset="1" stop-color="#f5b958"/>
    </linearGradient>
    <linearGradient id="linear-gradient-9" x1="674.7" y1="277.9" x2="755.7" y2="277.9" gradientTransform="translate(0 1698.8) scale(1 -1)" gradientUnits="userSpaceOnUse">
      <stop offset="0" stop-color="#ffdaa0"/>
      <stop offset="1" stop-color="#f5b958"/>
    </linearGradient>
    <linearGradient id="linear-gradient-10" x1="55.4" y1="128.5" x2="136.3" y2="128.5" gradientTransform="translate(0 1698.8) scale(1 -1)" gradientUnits="userSpaceOnUse">
      <stop offset="0" stop-color="#ffdaa0"/>
      <stop offset="1" stop-color="#f5b958"/>
    </linearGradient>
    <linearGradient id="linear-gradient-11" x1="818.3" y1="457.9" x2="899.3" y2="457.9" gradientTransform="translate(0 1698.8) scale(1 -1)" gradientUnits="userSpaceOnUse">
      <stop offset="0" stop-color="#ffdaa0"/>
      <stop offset="1" stop-color="#f5b958"/>
    </linearGradient>
  </defs>
  <!-- Generator: Adobe Illustrator 28.6.0, SVG Export Plug-In . SVG Version: 1.2.0 Build 709)  -->
  <g>
    <g id="_레이어_2">
      <g id="Layer_1">
        <g>
          <g>
            <path class="cls-9" d="M377,619.8c-11.3,0-22.6-4.2-31.3-12.7L70.9,339.5c-12.3-12-16.7-29.9-11.4-46.1,5.3-16.3,19.4-28.1,36.4-30.5l202.5-28.6,92.1-184.9c11.1-22.2,38-31.2,60.2-20.2s31.3,38,20.2,60.3l-102.6,206.1c-6.6,13.2-19.3,22.4-33.9,24.5l-135.2,19.1,209.2,203.7c17.8,17.3,18.2,45.8.9,63.5-8.8,9-20.5,13.6-32.2,13.6h0Z"/>
            <path class="cls-15" d="M155.4,723.1l11.1-63.7-39.3-38.5-108.1-106.3c-17.6-17.3-18-45.8-.6-63.5,17.4-17.8,45.8-18,63.6-.7l164.2,161.3c10.6,10.5,15.4,25.3,12.8,39.9l-14.7,83.6-14,11.3c-33.7,26.7-64.3,49.4-91.1,67.8l16.1-91.3h0Z"/>
            <path class="cls-1" d="M535.8,729.6l-339.4,178.7c-6.6,3.5-13.8,5.2-21,5.2s-15.3-2-22.1-6c20.1-12.7,43.1-28.2,68.1-46.5,52.1-38.1,110.4-85.5,173.1-141.1,15.3-13.6,30.7-27.4,46.3-41.8l53.1-28c21.9-11.6,49.1-3.2,60.7,18.8,11.6,22,3.2,49.2-18.8,60.7h0Z"/>
            <path class="cls-6" d="M728.7,1016.9c-7.2,0-14.5-1.7-21.1-5.2l-180.7-95.9-183.2,95.5c-22,11.5-49.1,2.9-60.6-19.1-11.5-22-2.9-49.2,19.1-60.6l204.2-106.4c13.1-6.8,28.8-6.8,41.8.2l120.6,64-49.5-287.7c-4.2-24.5,12.2-47.7,36.7-51.9,24.4-4.2,47.7,12.2,51.9,36.7l65.1,378c2.9,16.9-4,34-17.9,44-7.8,5.7-17.1,8.5-26.3,8.5h0Z"/>
            <path class="cls-10" d="M875.5,907.2c-21.5,0-40.6-15.5-44.3-37.5l-38.1-227.1c-2.5-14.6,2.5-29.5,13.1-39.7l98.2-95-289-41.8c-24.6-3.5-41.6-26.4-38-50.9s26.3-41.6,50.9-38l379.6,54.9c17,2.5,31.1,14.4,36.3,30.7,5.3,16.3.8,34.2-11.5,46.1l-147,142.2,34.2,203.8c4.1,24.5-12.4,47.7-36.9,51.8-2.5.4-5,.6-7.5.6h0Z"/>
            <path class="cls-5" d="M742.3,228.4l5.2.8c-18,22.6-38.2,47-60.1,72.6-.6.7-1.2,1.4-1.9,2.1-.2.3-.6.7-.8,1-5.4-4.2-9.8-9.5-12.8-15.8l-59.9-122.7-129.1,261.9c-7.9,16-23.8,25.2-40.3,25.2s-13.5-1.6-19.9-4.7c-22.2-10.9-31.3-37.9-20.5-60.1L571.7,44.5c7.6-15.4,23.2-25,40.3-25h.1c17.1,0,32.7,9.8,40.2,25.2l20.5,41.8,38.2,78.2,31.2,63.8h0Z"/>
            <path class="cls-7" d="M984.4,310c-3.6,24.5-26.4,41.5-51,37.9l-153.8-22.9c21.9-26.2,42-51.1,59.7-74.1l5.4-7.1,102,15.2c24.5,3.7,41.4,26.5,37.8,51.1h0Z"/>
            <path class="cls-14" d="M31.9,924.6c-12.2,0-18.5-4.6-23-9.2-8.7-8.7-35.3-35.3,80.4-193.7,13.3-18.2,37-48.6,50.8-66.1l9.5,9.4-6.4,24c-62,81.4-117.4,165.8-121,195.5l-2.4,20.2,20.1-2.4c17.9-2.2,46.8-15.8,85.8-40.7,6-3.8,12.3-7.8,18.7-12.2,30.2-20,65.9-46.2,105.8-77.9l18.9-15.2c38.1-31,79.1-66.3,122.1-105.2h0l4.7-4.2c16.9-15.7,34-31.7,51.8-48.6,24.5-23.1,50.1-48.1,76.2-74.2,2-2,4.8-3.2,7.7-3.2s5.6,1.1,7.7,3.2c2.1,2.1,3.3,4.8,3.3,7.7,0,2.9-1.2,5.7-3.3,7.8-39.9,39.9-79.7,78.1-118.4,113.7-16,14.8-31.9,29.1-47.5,43-62,55-119.4,101.8-170.7,139.1-26.2,19.2-50,35.3-70.5,47.9-4,2.5-7.9,4.8-11.6,7l-1.8,1.1c-38.1,22.2-67.3,33.4-86.7,33.4h0Z"/>
            <path class="cls-11" d="M717.7,342.8c-1.8,0-4.5-.5-7-2.6-3-2.5-4.3-6.4-3.5-10.1.3-1.8.9-3.6,2.3-5.2l1.8-2c24.7-28.7,47.2-56,66.9-81.1,2.4-3.1,4.8-6.1,7.1-9l4.3-5.4c93-120,109.4-170.4,112.2-186.5l.2-1.2c1.7-10-6.7-18.7-16.7-17.4l-1.2.2c-28.3,3.7-97.4,49.6-172.1,105.5l-9.7-19.9c2.9-2.2,5.8-4.3,8.7-6.3C792.1,42.3,860.4,0,892.5,0s18.4,4.6,22.9,9.1c30.8,30.8-32.2,130.1-90.5,207.9l-10.9,14.3c-19.2,25-41,52.1-65.1,80.7-3.9,4.7-7.9,9.4-12,14.1l-11,12.9c-2,2.4-5.1,3.8-8.3,3.8h0Z"/>
            <path class="cls-8" d="M548.9,447.3l21.5,39.4c1.7,3.1,4.3,5.7,7.4,7.4l39.3,21.5c12.9,7.1,12.9,25.7,0,32.7l-39.3,21.5c-3.1,1.7-5.7,4.3-7.4,7.4l-21.5,39.4c-7.1,12.9-25.7,12.9-32.7,0l-21.5-39.4c-1.7-3.1-4.3-5.7-7.4-7.4l-39.4-21.5c-12.9-7.1-12.9-25.7,0-32.7l39.4-21.5c3.1-1.7,5.7-4.3,7.4-7.4l21.5-39.4c7.1-12.9,25.6-12.9,32.7,0h0Z"/>
          </g>
          <g>
            <path class="cls-4" d="M-111.4,1367.9c-11,0-19.9-8.9-19.9-19.9v-214c0-11,8.9-19.9,19.9-19.9s19.9,8.9,19.9,19.9v214c0,11-8.9,19.9-19.9,19.9Z"/>
            <path class="cls-16" d="M719.4,1115.7h-97.5c-11,0-19.9,8.9-19.9,19.9s8.9,19.9,19.9,19.9h28.8v192.4c0,11,8.9,19.9,19.9,19.9s19.9-8.9,19.9-19.9v-192.4h28.8c11,0,19.9-8.9,19.9-19.9s-8.9-19.9-19.9-19.9h0Z"/>
            <path class="cls-4" d="M469.9,1366.6c-11,0-19.9-8.9-19.9-19.9s8.9-19.9,19.9-19.9c34.1,0,61.9-24.1,61.9-53.7v-12.8h-61.9c-11,0-19.9-8.9-19.9-19.9v-32.8c0-51.6,45.7-93.6,101.8-93.6s19.9,8.9,19.9,19.9-8.9,19.9-19.9,19.9c-34.1,0-61.9,24.1-61.9,53.7v12.8h61.9c11,0,19.9,8.9,19.9,19.9v32.8c0,51.6-45.7,93.6-101.8,93.6Z"/>
            <path class="cls-4" d="M570.6,1696c-11,0-19.9-8.9-19.9-19.9s8.9-19.9,19.9-19.9c34.1,0,61.9-24.1,61.9-53.7v-12.8h-61.9c-11,0-19.9-8.9-19.9-19.9v-32.8c0-51.6,45.6-93.6,101.8-93.6s19.9,8.9,19.9,19.9-8.9,19.9-19.9,19.9c-34.1,0-61.9,24.1-61.9,53.7v12.8h61.9c11,0,19.9,8.9,19.9,19.9v32.8c0,51.6-45.6,93.6-101.8,93.6Z"/>
            <path class="cls-4" d="M338.4,1443.3h-46.3c-48.2,0-87.4,36.2-87.4,80.7v153.3c0,11,8.9,19.9,19.9,19.9s19.9-8.9,19.9-19.9v-87.1h69.6c11,0,19.9-8.9,19.9-19.9s-8.9-19.9-19.9-19.9h-69.6v-26.4c0-22.5,21.3-40.8,47.5-40.8h46.3c11,0,19.9-8.9,19.9-19.9s-8.9-19.9-19.9-19.9h0Z"/>
            <path class="cls-16" d="M58.2,1367.9H24.4c-48.2,0-87.4-36.2-87.4-80.7v-153.9c0-11,8.9-19.9,19.9-19.9s19.9,8.9,19.9,19.9v153.9c0,22.5,21.3,40.8,47.6,40.8h33.8c11,0,19.9,8.9,19.9,19.9s-8.9,19.9-19.9,19.9h0Z"/>
            <path class="cls-4" d="M208.2,1367.9h-33.8c-48.2,0-87.4-36.2-87.4-80.7v-153.9c0-11,8.9-19.9,19.9-19.9s19.9,8.9,19.9,19.9v153.9c0,22.5,21.3,40.8,47.5,40.8h33.8c11,0,19.9,8.9,19.9,19.9s-8.9,19.9-19.9,19.9h0Z"/>
            <path class="cls-16" d="M394.6,1367.9h-72.1c-48.2,0-87.4-36.2-87.4-80.7v-153.9c0-11,8.9-19.9,19.9-19.9s19.9,8.9,19.9,19.9v153.9c0,22.5,21.3,40.8,47.5,40.8h52.1v-194.7c0-11,8.9-19.9,19.9-19.9s19.9,8.9,19.9,19.9v214.6c0,11-8.9,19.9-19.9,19.9Z"/>
            <g>
              <path class="cls-16" d="M1071,1113.4h-72.1c-11,0-19.9,8.9-19.9,19.9v214.6c0,11,8.9,19.9,19.9,19.9s19.9-8.9,19.9-19.9v-194.7h52.1c26.2,0,47.6,18.3,47.6,40.8v11.8c0,11,8.9,19.9,19.9,19.9s19.9-8.9,19.9-19.9v-11.8c0-44.5-39.2-80.7-87.4-80.7h0Z"/>
              <path class="cls-16" d="M1071,1220.7h-19c-11,0-19.9,8.9-19.9,19.9s8.9,19.9,19.9,19.9h19c26.2,0,47.6,18.3,47.6,40.8v46.6c0,11,8.9,19.9,19.9,19.9s19.9-8.9,19.9-19.9v-46.6c0-44.5-39.2-80.7-87.4-80.7h0Z"/>
            </g>
            <path class="cls-4" d="M928.6,1367.9c-11,0-19.9-8.9-19.9-19.9v-153.9c0-22.5-21.3-40.8-47.5-40.8h-52.1v194.7c0,11-8.9,19.9-19.9,19.9s-19.9-8.9-19.9-19.9v-214.6c0-11,8.9-19.9,19.9-19.9h72.1c48.2,0,87.4,36.2,87.4,80.7v153.9c0,11-8.9,19.9-19.9,19.9h0Z"/>
            <path class="cls-12" d="M722.2,1384.5l9.2,16.9c.7,1.3,1.8,2.4,3.2,3.2l16.9,9.2c5.5,3,5.5,11,0,14l-16.9,9.2c-1.3.7-2.5,1.8-3.2,3.2l-9.2,16.9c-3,5.6-11,5.6-14,0l-9.2-16.9c-.7-1.3-1.8-2.4-3.2-3.2l-16.9-9.2c-5.5-3-5.5-11,0-14l16.9-9.2c1.3-.7,2.5-1.8,3.2-3.2l9.2-16.9c3-5.6,11-5.6,14,0Z"/>
            <path class="cls-2" d="M102.9,1533.9l9.2,16.9c.7,1.3,1.8,2.4,3.2,3.2l16.9,9.2c5.5,3,5.5,11,0,14l-16.9,9.2c-1.3.7-2.4,1.8-3.2,3.2l-9.2,16.9c-3,5.6-11,5.6-14,0l-9.2-16.9c-.7-1.3-1.8-2.4-3.2-3.2l-16.9-9.2c-5.6-3-5.6-11,0-14l16.9-9.2c1.3-.7,2.4-1.8,3.2-3.2l9.2-16.9c3-5.6,11-5.6,14,0h0Z"/>
            <path class="cls-13" d="M865.9,1204.6l9.2,16.9c.7,1.3,1.8,2.4,3.2,3.2l16.9,9.2c5.6,3,5.6,11,0,14l-16.9,9.2c-1.3.7-2.5,1.8-3.2,3.2l-9.2,16.9c-3,5.6-11,5.6-14,0l-9.2-16.9c-.7-1.3-1.8-2.4-3.2-3.2l-16.9-9.2c-5.5-3-5.5-11,0-14l16.9-9.2c1.3-.7,2.5-1.8,3.2-3.2l9.2-16.9c3-5.6,11-5.6,14,0Z"/>
            <path class="cls-16" d="M505.5,1657.4h-46.3c-26.2,0-47.5-18.3-47.5-40.8v-26.4c.2,0,.4,0,.7,0h68.9c11,0,19.9-8.9,19.9-19.9s-8.9-19.9-19.9-19.9h-68.9c-.2,0-.4,0-.7,0v-26.4c0-22.5,21.3-40.8,47.5-40.8h46.3c11,0,19.9-8.9,19.9-19.9s-8.9-19.9-19.9-19.9h-46.3c-48.2,0-87.4,36.2-87.4,80.7v92.6c0,44.5,39.2,80.7,87.4,80.7h46.3c11,0,19.9-8.9,19.9-19.9s-8.9-19.9-19.9-19.9h0Z"/>
          </g>
          <g>
            <path class="cls-16" d="M890.4,1430.3c-68.8,0-124.6,55.8-124.6,124.6v124.6h124.6c68.8,0,124.6-55.8,124.6-124.6h0c0-68.8-55.8-124.6-124.6-124.6Z"/>
            <path class="cls-4" d="M890.4,1699h-124.6c-10.7,0-19.4-8.7-19.4-19.4v-124.6c0-79.4,64.6-144.1,144-144.1s144.1,64.6,144.1,144.1-64.6,144.1-144,144.1h0ZM785.2,1660.2h105.2c58,0,105.2-47.2,105.2-105.2s-47.2-105.2-105.2-105.2-105.2,47.2-105.2,105.2v105.2h0Z"/>
            <path class="cls-3" d="M900.3,1503.8l13,23.8c1,1.9,2.6,3.4,4.5,4.5l23.8,13c7.8,4.3,7.8,15.5,0,19.8l-23.8,13c-1.9,1-3.4,2.6-4.5,4.5l-13,23.8c-4.3,7.8-15.5,7.8-19.8,0l-13-23.8c-1-1.9-2.6-3.4-4.5-4.5l-23.8-13c-7.8-4.3-7.8-15.5,0-19.8l23.8-13c1.9-1,3.5-2.6,4.5-4.5l13-23.8c4.3-7.8,15.5-7.8,19.8,0Z"/>
          </g>
        </g>
      </g>
    </g>
  </g>
</svg>